<?xml version="1.0" encoding="UTF-8"?>
<svg id="Layer_2" data-name="Layer 2" xmlns="http://www.w3.org/2000/svg" xmlns:xlink="http://www.w3.org/1999/xlink" viewBox="0 0 351.64 102">
  <defs>
    <style>
      .cls-1 {
        fill: rgba(41, 45, 50, .4);
      }

      .cls-1, .cls-2, .cls-3 {
        stroke-width: 0px;
      }

      .cls-1, .cls-3 {
        fill-rule: evenodd;
      }

      .cls-2 {
        fill: #262c33;
      }

      .cls-3 {
        fill: #fff;
      }

      .cls-4 {
        mask: url(#mask);
      }
    </style>
    <mask id="mask" x="0" y="0" width="1821" height="102" maskUnits="userSpaceOnUse">
      <g id="path-1-inside-1_531_6042" data-name="path-1-inside-1 531 6042">
        <path class="cls-3" d="M1,91c0,5.52,4.48,10,10,10h1800c5.52,0,10-4.48,10-10V25c0-5.52-4.48-10-10-10H351.64c-4.16,0-7.74-2.93-8.57-7-.83-4.07-4.41-7-8.57-7H30.48c-4.16,0-7.74,2.93-8.56,7-.83,4.07-4.41,7-8.56,7h-2.36C5.47,15,1,19.47,1,25v66Z"/>
      </g>
    </mask>
  </defs>
  <g id="Layer_1-2" data-name="Layer 1">
    <g>
      <path class="cls-1" d="M351.64,15v86H11c-5.53,0-10-4.48-10-10V25c0-5.53,4.47-10,10-10h2.35c4.16,0,7.74-2.93,8.57-7,.83-4.08,4.41-7,8.56-7h304.03c4.16,0,7.74,2.92,8.57,7,.82,4.07,4.4,7,8.56,7Z"/>
      <g class="cls-4">
        <path class="cls-2" d="M11,100v2h340.64v-2H11ZM30.48,0v2h304.03V0H30.48ZM11,14v2h2.35v-2h-2.35ZM0,25v66h2V25H0ZM0,25h2c0-4.97,4.03-9,9-9v-2C4.92,14,0,18.92,0,25ZM20.94,7.8c-.73,3.6-3.9,6.2-7.59,6.2v2c4.64,0,8.63-3.27,9.55-7.8l-1.96-.4ZM20.94,7.8l1.96.4c.73-3.61,3.9-6.2,7.58-6.2V0c-4.63,0-8.62,3.26-9.54,7.8ZM334.51,0v2c3.68,0,6.85,2.59,7.59,6.2l.98-.2.98-.2c-.93-4.54-4.92-7.8-9.55-7.8ZM344.06,7.8l-.98.2-.98.2c.92,4.53,4.91,7.8,9.54,7.8v-2c-3.68,0-6.85-2.6-7.58-6.2ZM2,91H0c0,6.07,4.92,11,11,11v-2c-4.97,0-9-4.03-9-9Z"/>
      </g>
    </g>
  </g>
</svg>