<?xml version="1.0" encoding="utf-8"?>
<!-- Generator: Adobe Illustrator 26.0.0, SVG Export Plug-In . SVG Version: 6.00 Build 0)  -->
<svg version="1.1" id="Capa_1" xmlns="http://www.w3.org/2000/svg" xmlns:xlink="http://www.w3.org/1999/xlink" x="0px" y="0px"
	 viewBox="0 0 616 429" style="enable-background:new 0 0 616 429;" xml:space="preserve">
<style type="text/css">
	.st0{fill:#292D32;fill-opacity:0.4;}
</style>
<path class="st0" d="M1,335.2V41.5C1,30.7,9.7,22,20.5,22h1.2c5.4,0,10.7-2.2,14.5-6L46,6.2c3.7-3.7,8.6-5.7,13.8-5.7h113.4
	c5.2,0,10.1,2.1,13.8,5.7l9.8,9.8c3.8,3.8,9.1,6,14.5,6h344.2c5,0,9.9,2,13.5,5.4L609,66c3.8,3.7,6,8.8,6,14.1v317.2
	c0,5.5-2.3,10.7-6.3,14.4l-12.3,11.3c-3.6,3.3-8.3,5.1-13.2,5.1H441.8c-5.2,0-10.1-2.1-13.8-5.7l-10.8-10.8c-3.8-3.8-9.1-6-14.5-6
	H253.3c-5.4,0-10.7,2.2-14.5,6L228,422.3c-3.7,3.7-8.6,5.7-13.8,5.7H93.8c-5.2,0-10.1-2.1-13.8-5.7L6.7,349
	C3.1,345.3,1,340.4,1,335.2z"/>
</svg>
