<?xml version="1.0" encoding="UTF-8"?>
<svg id="Layer_2" data-name="Layer 2" xmlns="http://www.w3.org/2000/svg" xmlns:xlink="http://www.w3.org/1999/xlink" viewBox="0 0 1425.29 88">
  <defs>
    <style>
      .cls-1 {
        fill: rgba(41, 45, 50, .4);
      }

      .cls-1, .cls-2, .cls-3 {
        stroke-width: 0px;
      }

      .cls-1, .cls-3 {
        fill-rule: evenodd;
      }

      .cls-2 {
        fill: #262c33;
      }

      .cls-3 {
        fill: #fff;
      }

      .cls-4 {
        mask: url(#mask);
      }
    </style>
    <mask id="mask" x="0" y="0" width="1821" height="103" maskUnits="userSpaceOnUse">
      <g id="path-1-inside-1_531_5171" data-name="path-1-inside-1 531 5171">
        <path class="cls-3" d="M1821,11c0-5.52-4.48-10-10-10H11C5.48,1,1,5.48,1,11v66c0,5.52,4.48,10,10,10h1419.93c4.75,0,8.84,3.35,9.79,8,.94,4.65,5.04,8,9.79,8h301.98c4.75,0,8.85-3.35,9.79-8,.95-4.65,5.04-8,9.79-8h38.93c5.52,0,10-4.48,10-10V11Z"/>
      </g>
    </mask>
  </defs>
  <g id="Layer_1-2" data-name="Layer 1">
    <g>
      <path class="cls-1" d="M1425.29,1v86H11c-5.52,0-10-4.48-10-10V11C1,5.48,5.48,1,11,1h1414.29Z"/>
      <g class="cls-4">
        <path class="cls-2" d="M0,11h2C2,6.03,6.03,2,11,2V0C4.93,0,0,4.93,0,11ZM2,77H0c0,6.08,4.93,11,11,11v-2c-4.97,0-9-4.03-9-9ZM11,86v2h1414.29v-2H11ZM0,11v66h2V11H0ZM11,0v2h1414.29V0H11Z"/>
      </g>
    </g>
  </g>
</svg>