<?xml version="1.0" encoding="UTF-8"?>
<svg id="Layer_2" data-name="Layer 2" xmlns="http://www.w3.org/2000/svg" xmlns:xlink="http://www.w3.org/1999/xlink" viewBox="0 0 396.71 104">
  <defs>
    <style>
      .cls-1 {
        fill: rgba(41, 45, 50, .4);
      }

      .cls-1, .cls-2, .cls-3 {
        stroke-width: 0px;
      }

      .cls-1, .cls-3 {
        fill-rule: evenodd;
      }

      .cls-2 {
        fill: #262c33;
      }

      .cls-3 {
        fill: #fff;
      }

      .cls-4 {
        mask: url(#mask);
      }
    </style>
    <mask id="mask" x="-1424.29" y="0" width="1821" height="104" maskUnits="userSpaceOnUse">
      <g id="path-1-inside-1_531_5171" data-name="path-1-inside-1 531 5171">
        <path class="cls-3" d="M395.71,11c0-5.52-4.48-10-10-10h-1800c-5.52,0-10,4.48-10,10v66c0,5.52,4.48,10,10,10H5.64c4.75,0,8.84,3.35,9.79,8,.94,4.65,5.04,8,9.79,8h301.98c4.75,0,8.85-3.35,9.79-8,.95-4.65,5.04-8,9.79-8h38.93c5.52,0,10-4.48,10-10V11Z"/>
      </g>
    </mask>
  </defs>
  <g id="Layer_1-2" data-name="Layer 1">
    <g>
      <path class="cls-1" d="M395.71,11v66c0,5.52-4.48,10-10,10h-38.93c-4.75,0-8.84,3.35-9.79,8-.94,4.66-5.04,8-9.79,8H25.22c-4.75,0-8.85-3.34-9.79-8-.95-4.65-5.04-8-9.79-8H0V1h385.71c5.52,0,10,4.48,10,10Z"/>
      <g class="cls-4">
        <path class="cls-2" d="M0,0v2h385.71V0H0ZM0,86v2h5.64v-2H0ZM25.22,102v2h301.98v-2H25.22ZM346.78,86v2h38.93v-2h-38.93ZM394.71,11v66h2V11h-2ZM394.71,77c0,4.97-4.03,9-9,9v2c6.08,0,11-4.92,11-11h-2ZM336.01,94.8l1.96.4c.85-4.19,4.54-7.2,8.81-7.2v-2c-5.23,0-9.73,3.68-10.77,8.8ZM336.01,94.8c-.85,4.19-4.53,7.2-8.81,7.2v2c5.23,0,9.73-3.68,10.77-8.8l-1.96-.4ZM16.41,94.8l-1.96.4c1.04,5.12,5.54,8.8,10.77,8.8v-2c-4.28,0-7.96-3.01-8.81-7.2ZM5.64,86v2c4.27,0,7.96,3.01,8.81,7.2l1.96-.4c-1.04-5.12-5.54-8.8-10.77-8.8ZM385.71,0v2c4.97,0,9,4.03,9,9h2c0-6.07-4.92-11-11-11Z"/>
      </g>
    </g>
  </g>
</svg>