<?xml version="1.0" encoding="utf-8"?>
<!-- Generator: Adobe Illustrator 26.0.0, SVG Export Plug-In . SVG Version: 6.00 Build 0)  -->
<svg version="1.1" id="Capa_1" xmlns="http://www.w3.org/2000/svg" xmlns:xlink="http://www.w3.org/1999/xlink" x="0px" y="0px"
	 viewBox="0 0 329 23" style="enable-background:new 0 0 329 23;" xml:space="preserve">
<style type="text/css">
	.st0{fill-rule:evenodd;clip-rule:evenodd;fill:#101214;fill-opacity:100;}
	.st1{fill-rule:evenodd;clip-rule:evenodd;fill:#FFFFFF;filter:url(#Adobe_OpacityMaskFilter);}
	.st2{mask:url(#path-1-inside-1_374_3073_00000043433292352998781000000005838042651358242987_);fill:#292D32;}
</style>
<path class="st0" d="M0.7,0l3,15c0.9,4.7,5,8,9.8,8h302c4.8,0,8.9-3.3,9.8-8l3-15H0.7z"/>
<defs>
	<filter id="Adobe_OpacityMaskFilter" filterUnits="userSpaceOnUse" x="-0.6" y="-1" width="330.1" height="25">
		<feColorMatrix  type="matrix" values="1 0 0 0 0  0 1 0 0 0  0 0 1 0 0  0 0 0 1 0"/>
	</filter>
</defs>
<mask maskUnits="userSpaceOnUse" x="-0.6" y="-1" width="330.1" height="25" id="path-1-inside-1_374_3073_00000043433292352998781000000005838042651358242987_">
	<path class="st1" d="M0.7,0l3,15c0.9,4.7,5,8,9.8,8h302c4.8,0,8.9-3.3,9.8-8l3-15H0.7z"/>
</mask>
<path class="st2" d="M0.7,0v-1h-1.2l0.2,1.2L0.7,0z M3.7,15l-1,0.2L3.7,15z M325.3,15l1,0.2l0,0L325.3,15z M328.3,0l1,0.2l0.2-1.2
	h-1.2V0z M-0.3,0.2l3,15l2-0.4l-3-15L-0.3,0.2z M2.7,15.2c1,5.1,5.5,8.8,10.8,8.8v-2c-4.3,0-8-3-8.8-7.2L2.7,15.2z M13.5,24h302v-2
	h-302V24z M315.5,24c5.2,0,9.7-3.7,10.8-8.8l-2-0.4c-0.9,4.2-4.5,7.2-8.8,7.2V24z M326.3,15.2l3-15l-2-0.4l-3,15L326.3,15.2z"/>
</svg>
