<?xml version="1.0" encoding="utf-8"?>
<!-- Generator: Adobe Illustrator 26.0.0, SVG Export Plug-In . SVG Version: 6.00 Build 0)  -->
<svg version="1.1" id="Capa_1" xmlns="http://www.w3.org/2000/svg" xmlns:xlink="http://www.w3.org/1999/xlink" x="0px" y="0px"
	 viewBox="0 0 1106.7 107.3" style="enable-background:new 0 0 1106.7 107.3;" xml:space="preserve">
<style type="text/css">
	.st0{fill:#292D32;fill-opacity:0.4;}
</style>
<g>
	<path class="st0" d="M0,33.2l18.3,18.3c3.8,3.8,8.8,5.9,14.1,5.9h93.4c5.3,0,10.4,2.1,14.1,5.9l12.3,12.3c3.8,3.8,8.8,5.9,14.1,5.9
		h234.9c5.3,0,10.4-2.1,14.1-5.9l12.5-12.4c3.8-3.8,8.8-5.9,14.1-5.9h206.9c5.3,0,10.4,2.1,14.1,5.9L682.7,83
		c3.8,3.8,8.8,5.9,14.1,5.9h201.9c5.3,0,10.4,2.1,14.1,5.9l6.3,6.3c3.8,3.8,8.8,5.9,14.1,5.9h91.4c5.3,0,10.4-2.1,14.1-5.9l68-67.9
		V0H0V33.2z"/>
</g>
</svg>
