<svg id="Capa_1" data-name="Capa 1" xmlns="http://www.w3.org/2000/svg" viewBox="0 0 1167 121.89"><defs><style>.cls-1{fill:#292d32;fill-opacity:0.4;}</style></defs><path class="cls-1" d="M1161.79,71,1103.5,12.71A19.46,19.46,0,0,0,1089.72,7H641.28a19.46,19.46,0,0,0-13.78,5.71L614.71,25.5a20.51,20.51,0,0,1-14.49,6H338.78a20.51,20.51,0,0,1-14.49-6L305,6.21A19.46,19.46,0,0,0,291.22.5H69.78A19.46,19.46,0,0,0,56,6.21L6.21,56A19.46,19.46,0,0,0,.5,69.78v52.61h1167V84.78A19.46,19.46,0,0,0,1161.79,71Z" transform="translate(-0.5 -0.5)"/></svg>