<svg xmlns="http://www.w3.org/2000/svg" width="96" height="17" viewBox="0 0 96 17" fill="none">
    <g clip-path="url(#clip0_2587_157054)">
        <path
            d="M12.5626 1.51953V4.07838H6.57221C5.1644 4.07838 4.13726 4.45425 3.49081 5.206C2.85874 5.94329 2.54269 7.15766 2.54269 8.8491C2.54269 10.5261 2.85874 11.7405 3.49081 12.4922C4.1229 13.2295 5.15003 13.5982 6.57221 13.5982H8.9856C9.70392 13.5982 10.2211 13.4102 10.5371 13.0343C10.8531 12.644 11.0111 12.1452 11.0111 11.538C11.0111 10.9453 10.8603 10.49 10.5587 10.1719C10.2713 9.83935 9.82602 9.67312 9.22265 9.67312H5.99041V7.43957H9.48126C10.7885 7.43957 11.7581 7.81544 12.3902 8.56719C13.0223 9.30445 13.3384 10.3092 13.3384 11.5814C13.3384 12.2175 13.2521 12.8175 13.0797 13.3813C12.9218 13.9306 12.656 14.4149 12.2825 14.8342C11.9234 15.239 11.4565 15.5642 10.8819 15.81C10.3216 16.0413 9.63208 16.157 8.81322 16.157H6.57221C4.44612 16.157 2.81564 15.557 1.68077 14.3571C0.560254 13.1428 0 11.3067 0 8.8491C0 6.37699 0.560254 4.54099 1.68077 3.34108C2.81564 2.12671 4.44612 1.51953 6.57221 1.51953H12.5626Z"
            fill="white" />
        <path
            d="M17.0669 16.1594H14.2656L19.3726 3.14832C19.6455 2.4544 20.0262 1.9701 20.5146 1.69542C21.0175 1.40629 21.6567 1.26172 22.4324 1.26172C23.1938 1.26172 23.8187 1.40629 24.3071 1.69542C24.8099 1.9701 25.1906 2.4544 25.4492 3.14832L30.3621 16.1594H27.5393L23.122 4.38437C22.9927 4.05187 22.7556 3.88562 22.4109 3.88562C22.0661 3.88562 21.8219 4.05187 21.6783 4.38437L17.0669 16.1594Z"
            fill="white" />
        <path
            d="M35.0212 16.1594H32.5V4.53617C32.5 3.55311 32.7873 2.76522 33.362 2.1725C33.9365 1.56531 34.8128 1.26172 35.9909 1.26172C37.0251 1.26172 37.844 1.51471 38.4473 2.0207C39.0507 2.51223 39.4529 3.22061 39.654 4.14584L41.7011 13.1018C41.8304 13.6511 42.1536 13.9258 42.6708 13.9258C43.1736 13.9258 43.4968 13.6511 43.6405 13.1018L45.6875 4.14584C45.8886 3.22061 46.2693 2.51223 46.8296 2.0207C47.4042 1.51471 48.2159 1.26172 49.2645 1.26172C50.4425 1.26172 51.3188 1.56531 51.8934 2.1725C52.4681 2.76522 52.7553 3.55311 52.7553 4.53617V16.1594H50.2342V4.66628C50.2342 4.37715 50.1408 4.15307 49.9541 3.99405C49.7817 3.82057 49.5303 3.73382 49.1999 3.73382C48.8982 3.73382 48.6683 3.80611 48.5104 3.95067C48.3523 4.08078 48.2446 4.26873 48.1872 4.51449L46.097 13.4705C45.8671 14.4391 45.4864 15.1763 44.9549 15.6824C44.4234 16.1739 43.6548 16.4196 42.6492 16.4196C41.6293 16.4196 40.8392 16.1666 40.2789 15.6606C39.733 15.1547 39.3524 14.4246 39.1369 13.4705L37.0683 4.51449C37.0107 4.26873 36.8959 4.08078 36.7235 3.95067C36.5654 3.80611 36.3428 3.73382 36.0555 3.73382C35.7251 3.73382 35.4665 3.82057 35.2797 3.99405C35.1073 4.15307 35.0212 4.37715 35.0212 4.66628V16.1594Z"
            fill="white" />
        <path
            d="M58.7633 16.1594H56.2422V4.53617C56.2422 3.55311 56.5295 2.76522 57.1041 2.1725C57.6787 1.56531 58.555 1.26172 59.733 1.26172C60.7673 1.26172 61.5861 1.51471 62.1895 2.0207C62.7928 2.51223 63.195 3.22061 63.3962 4.14584L65.4433 13.1018C65.5725 13.6511 65.8957 13.9258 66.413 13.9258C66.9157 13.9258 67.239 13.6511 67.3827 13.1018L69.4297 4.14584C69.6308 3.22061 70.0115 2.51223 70.5718 2.0207C71.1464 1.51471 71.9581 1.26172 73.0067 1.26172C74.1847 1.26172 75.061 1.56531 75.6356 2.1725C76.2102 2.76522 76.4975 3.55311 76.4975 4.53617V16.1594H73.9763V4.66628C73.9763 4.37715 73.883 4.15307 73.6963 3.99405C73.5239 3.82057 73.2724 3.73382 72.9421 3.73382C72.6404 3.73382 72.4105 3.80611 72.2525 3.95067C72.0945 4.08078 71.9868 4.26873 71.9293 4.51449L69.8391 13.4705C69.6093 14.4391 69.2285 15.1763 68.6971 15.6824C68.1656 16.1739 67.397 16.4196 66.3914 16.4196C65.3715 16.4196 64.5813 16.1666 64.021 15.6606C63.4752 15.1547 63.0945 14.4246 62.879 13.4705L60.8104 4.51449C60.7529 4.26873 60.638 4.08078 60.4656 3.95067C60.3076 3.80611 60.085 3.73382 59.7976 3.73382C59.4672 3.73382 59.2087 3.82057 59.0219 3.99405C58.8495 4.15307 58.7633 4.37715 58.7633 4.66628V16.1594Z"
            fill="white" />
        <path
            d="M81.4419 16.1594H78.6406L83.7475 3.14832C84.0205 2.4544 84.4011 1.9701 84.8896 1.69542C85.3923 1.40629 86.0314 1.26172 86.807 1.26172C87.5691 1.26172 88.194 1.40629 88.6824 1.69542C89.1851 1.9701 89.5658 2.4544 89.8243 3.14832L94.7371 16.1594H91.9144L87.4967 4.38437C87.3679 4.05187 87.1304 3.88562 86.786 3.88562C86.4407 3.88562 86.1965 4.05187 86.0533 4.38437L81.4419 16.1594Z"
            fill="white" />
    </g>
    <defs>
        <clipPath id="clip0_2587_157054">
            <rect width="95.1579" height="16" fill="white" transform="translate(0 0.839844)" />
        </clipPath>
    </defs>
</svg>