<svg width="1169" height="430" viewBox="0 0 1169 430" fill="none" xmlns="http://www.w3.org/2000/svg">
<g filter="url(#filter0_b_190_2885)">
<path d="M1104.36 12.3579L1162.64 70.6421C1166.39 74.3929 1168.5 79.4799 1168.5 84.7843V310.216C1168.5 315.52 1166.39 320.607 1162.64 324.358L1063.36 423.642C1059.61 427.393 1054.52 429.5 1049.22 429.5H957.784C952.48 429.5 947.393 427.393 943.642 423.642L937.358 417.358C933.607 413.607 928.52 411.5 923.216 411.5H721.284C715.98 411.5 710.893 409.393 707.142 405.642L687.358 385.858C683.607 382.107 678.52 380 673.216 380H466.284C460.98 380 455.893 382.107 452.142 385.858L439.858 398.142C436.107 401.893 431.02 404 425.716 404H190.784C185.48 404 180.393 401.893 176.642 398.142L164.358 385.858C160.607 382.107 155.52 380 150.216 380H56.7843C51.4799 380 46.3929 377.893 42.6421 374.142L6.35786 337.858C2.60714 334.107 0.5 329.02 0.5 323.716V69.7843C0.5 64.4799 2.60714 59.3929 6.35786 55.6421L56.1421 5.85786C59.8929 2.10714 64.9799 0 70.2843 0H291.716C297.02 0 302.107 2.10714 305.858 5.85787L325.142 25.1421C328.893 28.8929 333.98 31 339.284 31H600.716C606.02 31 611.107 28.8929 614.858 25.1421L627.642 12.3579C631.393 8.60714 636.48 6.5 641.784 6.5H1090.22C1095.52 6.5 1100.61 8.60714 1104.36 12.3579Z" fill="#292D32" fill-opacity="0.4"/>
<path d="M1104 12.7114L1162.29 70.9957C1165.95 74.6526 1168 79.6125 1168 84.7843V310.216C1168 315.387 1165.95 320.347 1162.29 324.004L1063 423.289C1059.35 426.946 1054.39 429 1049.22 429H957.784C952.613 429 947.653 426.946 943.996 423.289L937.711 417.004C933.867 413.16 928.653 411 923.216 411H721.284C716.113 411 711.153 408.946 707.496 405.289L687.711 385.504C683.867 381.66 678.653 379.5 673.216 379.5H466.284C460.847 379.5 455.633 381.66 451.789 385.504L439.504 397.789C435.847 401.446 430.887 403.5 425.716 403.5H190.784C185.613 403.5 180.653 401.446 176.996 397.789L164.711 385.504C160.867 381.66 155.653 379.5 150.216 379.5H56.7843C51.6126 379.5 46.6526 377.446 42.9957 373.789L6.71142 337.504C3.05446 333.847 1 328.887 1 323.716V69.7843C1 64.6125 3.05446 59.6526 6.71142 55.9957L56.4957 6.21142C60.1526 2.55446 65.1125 0.5 70.2843 0.5H291.716C296.887 0.5 301.847 2.55446 305.504 6.21142L324.789 25.4957C328.633 29.3402 333.847 31.5 339.284 31.5H600.716C606.153 31.5 611.367 29.3402 615.211 25.4957L627.996 12.7114C631.653 9.05446 636.613 7 641.784 7H1090.22C1095.39 7 1100.35 9.05446 1104 12.7114Z" stroke="#262C33"/>
</g>
<defs>
<filter id="filter0_b_190_2885" x="-29.5" y="-30" width="1228" height="489.5" filterUnits="userSpaceOnUse" color-interpolation-filters="sRGB">
<feFlood flood-opacity="0" result="BackgroundImageFix"/>
<feGaussianBlur in="BackgroundImageFix" stdDeviation="15"/>
<feComposite in2="SourceAlpha" operator="in" result="effect1_backgroundBlur_190_2885"/>
<feBlend mode="normal" in="SourceGraphic" in2="effect1_backgroundBlur_190_2885" result="shape"/>
</filter>
</defs>
</svg>
